<?xml version="1.0"?>
<svg width="300" height="204" xmlns="http://www.w3.org/2000/svg" xmlns:svg="http://www.w3.org/2000/svg" preserveAspectRatio="xMidYMid meet" version="1.0">
 <metadata>Created by potrace 1.10, written by Peter Selinger 2001-2011</metadata>
 <g class="layer">
  <title>Layer 1</title>
  <path d="m52.9,8c-16,3.3 -27.7,10.8 -33.4,21.1c-3.8,7 -4.6,18.5 -2,27.5c2,7 9.7,22.1 13.6,26.7c2.7,3.1 2.7,3 -0.6,-3.3c-14.4,-27.6 -4.4,-49.9 26.2,-58.2c11.3,-3.1 38.9,-3.1 55.4,0c48.6,9.1 98,34.3 129.9,66.2c21.9,21.8 31.8,43.4 27.6,59.9c-3.5,13.9 -13.1,22.1 -31.6,27.2l-6.5,1.8l5.5,-0.5c15.5,-1.6 30.7,-7.5 38.2,-14.9c6.6,-6.4 9.2,-12.3 9.6,-21.6c0.9,-18.2 -9,-36.9 -31,-58.6c-11.7,-11.5 -18.8,-17.2 -35.6,-28.4c-34.3,-22.7 -77.8,-39.7 -116.3,-45.3c-14.7,-2.2 -37.9,-2 -49,0.4z" fill="#17134f" id="svg_2"/>
  <path d="m69.5,29.7c-19.3,2.7 -31.8,11.4 -35.9,25c-0.6,1.8 -0.1,1.7 3,-1.2c4.6,-4.2 14,-8.8 22.9,-11.1c10.8,-2.8 39.2,-2.6 54.2,0.4c31.1,6.2 58.9,17.5 84.3,34.3c9.5,6.3 15.4,11.1 24.5,20.3c6.6,6.7 13.5,14.7 15.4,17.9c13.9,23.6 9.8,43.7 -11.1,54.2c-7.7,3.8 -7.3,4.4 1.3,1.9c18.2,-5.4 29.3,-16.8 30.6,-31.2c1.4,-16.3 -13.6,-40.1 -37.7,-59.5c-24.9,-20.1 -62.3,-37.9 -97,-46.1c-18.8,-4.5 -42.2,-6.6 -54.5,-4.9z" fill="#676767" id="svg_3"/>
  <path d="m62,57.5c0,0.2 1.8,0.9 4,1.5c3,0.8 4.2,1.7 4.7,3.8c0.5,1.5 0.8,20.7 0.8,42.7c0,36.7 -0.2,40.3 -1.8,42.8c-0.9,1.5 -2.6,2.7 -3.7,2.7c-1,0 -2.1,0.4 -2.4,0.8c-0.3,0.5 10.7,1.2 24.4,1.5c31.8,0.9 40.4,-0.5 53.5,-8.8c5,-3.1 11.5,-9.7 11.5,-11.5c0,-0.6 0.7,-1 1.6,-1c1.5,0 1.6,2.7 1.2,28.3c-0.3,24.9 -0.6,28.7 -2.1,31c-1,1.5 -2.5,2.7 -3.5,2.7c-0.9,0 -2.4,0.5 -3.2,1c-1,0.6 4.7,1 17,0.9c17.2,0 20,-0.6 11.8,-2.3c-4.1,-0.9 -4.9,-5.5 -4.6,-27.3l0.3,-18.8l10.9,0.4c6,0.1 11.7,0.8 12.7,1.4c1,0.6 2.4,2.7 3.2,4.7l1.4,3.5l0.7,-6c0.4,-3.3 0.9,-7.7 1.2,-9.8l0.5,-3.9l-2.7,2.1c-2.4,1.9 -4,2.1 -15.5,2.1l-12.9,0l0,-18.2l0,-18.1l12.6,0.6c14.1,0.7 17.1,1.8 18.1,6.8c0.9,4.7 2,2.1 2.6,-6.2l0.5,-7.6l-4.8,0.9c-2.6,0.5 -12.1,0.7 -21.1,0.6l-16.3,-0.3l-1.2,-6.6c-2.4,-13.3 -11.5,-25.4 -22.9,-30.9c-10,-4.8 -20.2,-6 -50.1,-6c-14.5,0 -26.4,0.2 -26.4,0.5zm48.6,5.6c12,2.2 24.1,10.4 29.8,20.2c4.5,7.7 5.8,14.7 5.4,27.6c-0.7,18.1 -5.6,27.5 -17.8,33.6c-13,6.5 -36.1,5.7 -39.7,-1.5c-1.8,-3.6 -1.9,-79.6 0,-80.3c2.3,-1 16.3,-0.7 22.3,0.4z" fill="#17134f" id="svg_4" stroke="#17134f"/>
 </g>
</svg>